<svg id="visual" viewBox="0 0 900 600" width="900" height="600" xmlns="http://www.w3.org/2000/svg" xmlns:xlink="http://www.w3.org/1999/xlink" version="1.1"><rect x="0" y="0" width="900" height="600" fill="#E5E7EB"></rect><defs><linearGradient id="grad1_0" x1="33.3%" y1="0%" x2="100%" y2="100%"><stop offset="20%" stop-color="#001220" stop-opacity="1"></stop><stop offset="80%" stop-color="#001220" stop-opacity="1"></stop></linearGradient></defs><defs><linearGradient id="grad1_1" x1="33.3%" y1="0%" x2="100%" y2="100%"><stop offset="20%" stop-color="#001220" stop-opacity="1"></stop><stop offset="80%" stop-color="#e5e7eb" stop-opacity="1"></stop></linearGradient></defs><defs><linearGradient id="grad2_0" x1="0%" y1="0%" x2="66.7%" y2="100%"><stop offset="20%" stop-color="#001220" stop-opacity="1"></stop><stop offset="80%" stop-color="#001220" stop-opacity="1"></stop></linearGradient></defs><defs><linearGradient id="grad2_1" x1="0%" y1="0%" x2="66.7%" y2="100%"><stop offset="20%" stop-color="#e5e7eb" stop-opacity="1"></stop><stop offset="80%" stop-color="#001220" stop-opacity="1"></stop></linearGradient></defs><g transform="translate(900, 0)"><path d="M0 297.5C-30.5 302.5 -61 307.5 -76.6 285.9C-92.2 264.3 -92.9 216 -118.5 205.2C-144.1 194.5 -194.5 221.1 -210.3 210.3C-226.1 199.5 -207.3 151.2 -214.8 124C-222.3 96.8 -256.1 90.7 -274.3 73.5C-292.5 56.4 -295 28.2 -297.5 0L0 0Z" fill="#6c737e"></path><path d="M0 148.7C-15.3 151.2 -30.5 153.8 -38.3 143C-46.1 132.1 -46.5 108 -59.2 102.6C-72 97.2 -97.3 110.6 -105.2 105.2C-113.1 99.8 -103.6 75.6 -107.4 62C-111.1 48.4 -128.1 45.3 -137.2 36.8C-146.2 28.2 -147.5 14.1 -148.7 0L0 0Z" fill="#001220"></path></g><g transform="translate(0, 600)"><path d="M0 -297.5C22.9 -286.1 45.8 -274.8 72.7 -271.4C99.6 -268 130.5 -272.5 148.7 -257.6C167 -242.7 172.6 -208.5 184.6 -184.6C196.5 -160.7 214.7 -147.1 222.6 -128.5C230.4 -109.9 227.8 -86.2 238.6 -63.9C249.3 -41.7 273.4 -20.8 297.5 0L0 0Z" fill="#6c737e"></path><path d="M0 -148.7C11.5 -143.1 22.9 -137.4 36.4 -135.7C49.8 -134 65.2 -136.2 74.4 -128.8C83.5 -121.4 86.3 -104.2 92.3 -92.3C98.2 -80.3 107.4 -73.6 111.3 -64.3C115.2 -54.9 113.9 -43.1 119.3 -32C124.7 -20.8 136.7 -10.4 148.7 0L0 0Z" fill="#001220"></path></g></svg>